<?xml version="1.0" encoding="UTF-8" standalone="no"?>
<!DOCTYPE svg PUBLIC "-//W3C//DTD SVG 1.1//EN"
 "http://www.w3.org/Graphics/SVG/1.1/DTD/svg11.dtd">
<!-- Generated by graphviz version 2.36.0 (20140111.2315)
 -->
<!-- Title: controllers_diagram Pages: 1 -->
<svg width="860pt" height="782pt"
 viewBox="0.00 0.00 860.00 782.00" xmlns="http://www.w3.org/2000/svg" xmlns:xlink="http://www.w3.org/1999/xlink">
<g id="graph0" class="graph" transform="scale(1 1) rotate(0) translate(4 778)">
<title>controllers_diagram</title>
<polygon fill="white" stroke="none" points="-4,4 -4,-778 856,-778 856,4 -4,4"/>
<!-- _diagram_info -->
<g id="node1" class="node"><title>_diagram_info</title>
<text text-anchor="start" x="646" y="-759.6" font-family="Times,serif" font-size="13.00">Controllers diagram</text>
<text text-anchor="start" x="646" y="-745.6" font-family="Times,serif" font-size="13.00">Date: Mar 09 2014 &#45; 00:09</text>
<text text-anchor="start" x="646" y="-731.6" font-family="Times,serif" font-size="13.00">Migration version: 20140225123521</text>
<text text-anchor="start" x="646" y="-717.6" font-family="Times,serif" font-size="13.00">Generated by RailRoady 1.1.1</text>
<text text-anchor="start" x="646" y="-703.6" font-family="Times,serif" font-size="13.00">http://railroady.prestonlee.com</text>
</g>
<!-- IngredientItemsController -->
<g id="node2" class="node"><title>IngredientItemsController</title>
<path fill="none" stroke="black" d="M12,-308.591C12,-308.591 152,-308.591 152,-308.591 158,-308.591 164,-314.591 164,-320.591 164,-320.591 164,-509.591 164,-509.591 164,-515.591 158,-521.591 152,-521.591 152,-521.591 12,-521.591 12,-521.591 6,-521.591 0,-515.591 0,-509.591 0,-509.591 0,-320.591 0,-320.591 0,-314.591 6,-308.591 12,-308.591"/>
<text text-anchor="middle" x="82" y="-506.391" font-family="Times,serif" font-size="14.00">IngredientItemsController</text>
<polyline fill="none" stroke="black" points="0,-498.591 164,-498.591 "/>
<text text-anchor="start" x="8" y="-483.391" font-family="Times,serif" font-size="14.00">create</text>
<text text-anchor="start" x="8" y="-468.391" font-family="Times,serif" font-size="14.00">destroy</text>
<text text-anchor="start" x="8" y="-453.391" font-family="Times,serif" font-size="14.00">edit</text>
<text text-anchor="start" x="8" y="-438.391" font-family="Times,serif" font-size="14.00">index</text>
<text text-anchor="start" x="8" y="-423.391" font-family="Times,serif" font-size="14.00">new</text>
<text text-anchor="start" x="8" y="-408.391" font-family="Times,serif" font-size="14.00">show</text>
<text text-anchor="start" x="8" y="-393.391" font-family="Times,serif" font-size="14.00">update</text>
<polyline fill="none" stroke="black" points="0,-385.591 164,-385.591 "/>
<polyline fill="none" stroke="black" points="0,-361.591 164,-361.591 "/>
<text text-anchor="start" x="8" y="-346.391" font-family="Times,serif" font-size="14.00">_layout</text>
<text text-anchor="start" x="8" y="-331.391" font-family="Times,serif" font-size="14.00">ingredient_item_params</text>
<text text-anchor="start" x="8" y="-316.391" font-family="Times,serif" font-size="14.00">set_ingredient_item</text>
</g>
<!-- RecipesController -->
<g id="node3" class="node"><title>RecipesController</title>
<path fill="none" stroke="black" d="M600.233,-405.688C600.233,-405.688 695.233,-405.688 695.233,-405.688 701.233,-405.688 707.233,-411.688 707.233,-417.688 707.233,-417.688 707.233,-606.688 707.233,-606.688 707.233,-612.688 701.233,-618.688 695.233,-618.688 695.233,-618.688 600.233,-618.688 600.233,-618.688 594.233,-618.688 588.233,-612.688 588.233,-606.688 588.233,-606.688 588.233,-417.688 588.233,-417.688 588.233,-411.688 594.233,-405.688 600.233,-405.688"/>
<text text-anchor="middle" x="647.733" y="-603.488" font-family="Times,serif" font-size="14.00">RecipesController</text>
<polyline fill="none" stroke="black" points="588.233,-595.688 707.233,-595.688 "/>
<text text-anchor="start" x="596.233" y="-580.488" font-family="Times,serif" font-size="14.00">create</text>
<text text-anchor="start" x="596.233" y="-565.488" font-family="Times,serif" font-size="14.00">destroy</text>
<text text-anchor="start" x="596.233" y="-550.488" font-family="Times,serif" font-size="14.00">edit</text>
<text text-anchor="start" x="596.233" y="-535.488" font-family="Times,serif" font-size="14.00">index</text>
<text text-anchor="start" x="596.233" y="-520.488" font-family="Times,serif" font-size="14.00">new</text>
<text text-anchor="start" x="596.233" y="-505.488" font-family="Times,serif" font-size="14.00">show</text>
<text text-anchor="start" x="596.233" y="-490.488" font-family="Times,serif" font-size="14.00">update</text>
<polyline fill="none" stroke="black" points="588.233,-482.688 707.233,-482.688 "/>
<polyline fill="none" stroke="black" points="588.233,-458.688 707.233,-458.688 "/>
<text text-anchor="start" x="596.233" y="-443.488" font-family="Times,serif" font-size="14.00">_layout</text>
<text text-anchor="start" x="596.233" y="-428.488" font-family="Times,serif" font-size="14.00">recipe_params</text>
<text text-anchor="start" x="596.233" y="-413.488" font-family="Times,serif" font-size="14.00">set_recipe</text>
</g>
<!-- RecipePartsController -->
<g id="node4" class="node"><title>RecipePartsController</title>
<path fill="none" stroke="black" d="M365.113,-0.5C365.113,-0.5 483.113,-0.5 483.113,-0.5 489.113,-0.5 495.113,-6.5 495.113,-12.5 495.113,-12.5 495.113,-201.5 495.113,-201.5 495.113,-207.5 489.113,-213.5 483.113,-213.5 483.113,-213.5 365.113,-213.5 365.113,-213.5 359.113,-213.5 353.113,-207.5 353.113,-201.5 353.113,-201.5 353.113,-12.5 353.113,-12.5 353.113,-6.5 359.113,-0.5 365.113,-0.5"/>
<text text-anchor="middle" x="424.113" y="-198.3" font-family="Times,serif" font-size="14.00">RecipePartsController</text>
<polyline fill="none" stroke="black" points="353.113,-190.5 495.113,-190.5 "/>
<text text-anchor="start" x="361.113" y="-175.3" font-family="Times,serif" font-size="14.00">create</text>
<text text-anchor="start" x="361.113" y="-160.3" font-family="Times,serif" font-size="14.00">destroy</text>
<text text-anchor="start" x="361.113" y="-145.3" font-family="Times,serif" font-size="14.00">edit</text>
<text text-anchor="start" x="361.113" y="-130.3" font-family="Times,serif" font-size="14.00">index</text>
<text text-anchor="start" x="361.113" y="-115.3" font-family="Times,serif" font-size="14.00">new</text>
<text text-anchor="start" x="361.113" y="-100.3" font-family="Times,serif" font-size="14.00">show</text>
<text text-anchor="start" x="361.113" y="-85.3" font-family="Times,serif" font-size="14.00">update</text>
<polyline fill="none" stroke="black" points="353.113,-77.5 495.113,-77.5 "/>
<polyline fill="none" stroke="black" points="353.113,-53.5 495.113,-53.5 "/>
<text text-anchor="start" x="361.113" y="-38.3" font-family="Times,serif" font-size="14.00">_layout</text>
<text text-anchor="start" x="361.113" y="-23.3" font-family="Times,serif" font-size="14.00">recipe_part_params</text>
<text text-anchor="start" x="361.113" y="-8.3" font-family="Times,serif" font-size="14.00">set_recipe_part</text>
</g>
<!-- IndexController -->
<g id="node5" class="node"><title>IndexController</title>
<path fill="none" stroke="black" d="M413.052,-635.137C413.052,-635.137 497.052,-635.137 497.052,-635.137 503.052,-635.137 509.052,-641.137 509.052,-647.137 509.052,-647.137 509.052,-716.137 509.052,-716.137 509.052,-722.137 503.052,-728.137 497.052,-728.137 497.052,-728.137 413.052,-728.137 413.052,-728.137 407.052,-728.137 401.052,-722.137 401.052,-716.137 401.052,-716.137 401.052,-647.137 401.052,-647.137 401.052,-641.137 407.052,-635.137 413.052,-635.137"/>
<text text-anchor="middle" x="455.052" y="-712.937" font-family="Times,serif" font-size="14.00">IndexController</text>
<polyline fill="none" stroke="black" points="401.052,-705.137 509.052,-705.137 "/>
<text text-anchor="start" x="409.052" y="-689.937" font-family="Times,serif" font-size="14.00">index</text>
<polyline fill="none" stroke="black" points="401.052,-682.137 509.052,-682.137 "/>
<polyline fill="none" stroke="black" points="401.052,-658.137 509.052,-658.137 "/>
<text text-anchor="start" x="409.052" y="-642.937" font-family="Times,serif" font-size="14.00">_layout</text>
</g>
<!-- ApplicationController -->
<g id="node6" class="node"><title>ApplicationController</title>
<path fill="none" stroke="black" d="M316.964,-350.536C316.964,-350.536 435.964,-350.536 435.964,-350.536 441.964,-350.536 447.964,-356.536 447.964,-362.536 447.964,-362.536 447.964,-432.536 447.964,-432.536 447.964,-438.536 441.964,-444.536 435.964,-444.536 435.964,-444.536 316.964,-444.536 316.964,-444.536 310.964,-444.536 304.964,-438.536 304.964,-432.536 304.964,-432.536 304.964,-362.536 304.964,-362.536 304.964,-356.536 310.964,-350.536 316.964,-350.536"/>
<text text-anchor="middle" x="376.464" y="-429.336" font-family="Times,serif" font-size="14.00">ApplicationController</text>
<polyline fill="none" stroke="black" points="304.964,-421.536 447.964,-421.536 "/>
<polyline fill="none" stroke="black" points="304.964,-397.536 447.964,-397.536 "/>
<polyline fill="none" stroke="black" points="304.964,-373.536 447.964,-373.536 "/>
<text text-anchor="start" x="312.964" y="-358.336" font-family="Times,serif" font-size="14.00">_layout</text>
</g>
<!-- ApplicationController&#45;&gt;IngredientItemsController -->
<g id="edge1" class="edge"><title>ApplicationController&#45;&gt;IngredientItemsController</title>
<path fill="none" stroke="black" d="M304.806,-401.808C262.332,-404.34 208.345,-407.559 164.151,-410.193"/>
</g>
<!-- ApplicationController&#45;&gt;RecipesController -->
<g id="edge2" class="edge"><title>ApplicationController&#45;&gt;RecipesController</title>
<path fill="none" stroke="black" d="M448.092,-427.81C491.73,-446.253 546.837,-469.544 588.093,-486.981"/>
</g>
<!-- ApplicationController&#45;&gt;RecipePartsController -->
<g id="edge3" class="edge"><title>ApplicationController&#45;&gt;RecipePartsController</title>
<path fill="none" stroke="black" d="M384.172,-350.534C390.23,-313.595 398.905,-260.699 406.624,-213.637"/>
</g>
<!-- ApplicationController&#45;&gt;IndexController -->
<g id="edge4" class="edge"><title>ApplicationController&#45;&gt;IndexController</title>
<path fill="none" stroke="black" d="M389.529,-444.769C404.107,-497.468 427.549,-582.212 442.086,-634.765"/>
</g>
<!-- MeasuresController -->
<g id="node7" class="node"><title>MeasuresController</title>
<path fill="none" stroke="black" d="M153.041,-530.613C153.041,-530.613 257.041,-530.613 257.041,-530.613 263.041,-530.613 269.041,-536.613 269.041,-542.613 269.041,-542.613 269.041,-731.613 269.041,-731.613 269.041,-737.613 263.041,-743.613 257.041,-743.613 257.041,-743.613 153.041,-743.613 153.041,-743.613 147.041,-743.613 141.041,-737.613 141.041,-731.613 141.041,-731.613 141.041,-542.613 141.041,-542.613 141.041,-536.613 147.041,-530.613 153.041,-530.613"/>
<text text-anchor="middle" x="205.041" y="-728.413" font-family="Times,serif" font-size="14.00">MeasuresController</text>
<polyline fill="none" stroke="black" points="141.041,-720.613 269.041,-720.613 "/>
<text text-anchor="start" x="149.041" y="-705.413" font-family="Times,serif" font-size="14.00">create</text>
<text text-anchor="start" x="149.041" y="-690.413" font-family="Times,serif" font-size="14.00">destroy</text>
<text text-anchor="start" x="149.041" y="-675.413" font-family="Times,serif" font-size="14.00">edit</text>
<text text-anchor="start" x="149.041" y="-660.413" font-family="Times,serif" font-size="14.00">index</text>
<text text-anchor="start" x="149.041" y="-645.413" font-family="Times,serif" font-size="14.00">new</text>
<text text-anchor="start" x="149.041" y="-630.413" font-family="Times,serif" font-size="14.00">show</text>
<text text-anchor="start" x="149.041" y="-615.413" font-family="Times,serif" font-size="14.00">update</text>
<polyline fill="none" stroke="black" points="141.041,-607.613 269.041,-607.613 "/>
<polyline fill="none" stroke="black" points="141.041,-583.613 269.041,-583.613 "/>
<text text-anchor="start" x="149.041" y="-568.413" font-family="Times,serif" font-size="14.00">_layout</text>
<text text-anchor="start" x="149.041" y="-553.413" font-family="Times,serif" font-size="14.00">measure_params</text>
<text text-anchor="start" x="149.041" y="-538.413" font-family="Times,serif" font-size="14.00">set_measure</text>
</g>
<!-- ApplicationController&#45;&gt;MeasuresController -->
<g id="edge5" class="edge"><title>ApplicationController&#45;&gt;MeasuresController</title>
<path fill="none" stroke="black" d="M342.801,-444.583C321.837,-473.881 294.188,-512.523 269.164,-547.495"/>
</g>
<!-- IngredientListsController -->
<g id="node8" class="node"><title>IngredientListsController</title>
<path fill="none" stroke="black" d="M110.048,-72.7428C110.048,-72.7428 247.048,-72.7428 247.048,-72.7428 253.048,-72.7428 259.048,-78.7428 259.048,-84.7428 259.048,-84.7428 259.048,-273.743 259.048,-273.743 259.048,-279.743 253.048,-285.743 247.048,-285.743 247.048,-285.743 110.048,-285.743 110.048,-285.743 104.048,-285.743 98.0479,-279.743 98.0479,-273.743 98.0479,-273.743 98.0479,-84.7428 98.0479,-84.7428 98.0479,-78.7428 104.048,-72.7428 110.048,-72.7428"/>
<text text-anchor="middle" x="178.548" y="-270.543" font-family="Times,serif" font-size="14.00">IngredientListsController</text>
<polyline fill="none" stroke="black" points="98.0479,-262.743 259.048,-262.743 "/>
<text text-anchor="start" x="106.048" y="-247.543" font-family="Times,serif" font-size="14.00">create</text>
<text text-anchor="start" x="106.048" y="-232.543" font-family="Times,serif" font-size="14.00">destroy</text>
<text text-anchor="start" x="106.048" y="-217.543" font-family="Times,serif" font-size="14.00">edit</text>
<text text-anchor="start" x="106.048" y="-202.543" font-family="Times,serif" font-size="14.00">index</text>
<text text-anchor="start" x="106.048" y="-187.543" font-family="Times,serif" font-size="14.00">new</text>
<text text-anchor="start" x="106.048" y="-172.543" font-family="Times,serif" font-size="14.00">show</text>
<text text-anchor="start" x="106.048" y="-157.543" font-family="Times,serif" font-size="14.00">update</text>
<polyline fill="none" stroke="black" points="98.0479,-149.743 259.048,-149.743 "/>
<polyline fill="none" stroke="black" points="98.0479,-125.743 259.048,-125.743 "/>
<text text-anchor="start" x="106.048" y="-110.543" font-family="Times,serif" font-size="14.00">_layout</text>
<text text-anchor="start" x="106.048" y="-95.5428" font-family="Times,serif" font-size="14.00">ingredient_list_params</text>
<text text-anchor="start" x="106.048" y="-80.5428" font-family="Times,serif" font-size="14.00">set_ingredient_list</text>
</g>
<!-- ApplicationController&#45;&gt;IngredientListsController -->
<g id="edge6" class="edge"><title>ApplicationController&#45;&gt;IngredientListsController</title>
<path fill="none" stroke="black" d="M333.763,-350.439C311.944,-326.374 284.663,-296.283 259.084,-268.07"/>
</g>
<!-- IngredientsController -->
<g id="node9" class="node"><title>IngredientsController</title>
<path fill="none" stroke="black" d="M576.658,-148.857C576.658,-148.857 691.658,-148.857 691.658,-148.857 697.658,-148.857 703.658,-154.857 703.658,-160.857 703.658,-160.857 703.658,-349.857 703.658,-349.857 703.658,-355.857 697.658,-361.857 691.658,-361.857 691.658,-361.857 576.658,-361.857 576.658,-361.857 570.658,-361.857 564.658,-355.857 564.658,-349.857 564.658,-349.857 564.658,-160.857 564.658,-160.857 564.658,-154.857 570.658,-148.857 576.658,-148.857"/>
<text text-anchor="middle" x="634.158" y="-346.657" font-family="Times,serif" font-size="14.00">IngredientsController</text>
<polyline fill="none" stroke="black" points="564.658,-338.857 703.658,-338.857 "/>
<text text-anchor="start" x="572.658" y="-323.657" font-family="Times,serif" font-size="14.00">create</text>
<text text-anchor="start" x="572.658" y="-308.657" font-family="Times,serif" font-size="14.00">destroy</text>
<text text-anchor="start" x="572.658" y="-293.657" font-family="Times,serif" font-size="14.00">edit</text>
<text text-anchor="start" x="572.658" y="-278.657" font-family="Times,serif" font-size="14.00">index</text>
<text text-anchor="start" x="572.658" y="-263.657" font-family="Times,serif" font-size="14.00">new</text>
<text text-anchor="start" x="572.658" y="-248.657" font-family="Times,serif" font-size="14.00">show</text>
<text text-anchor="start" x="572.658" y="-233.657" font-family="Times,serif" font-size="14.00">update</text>
<polyline fill="none" stroke="black" points="564.658,-225.857 703.658,-225.857 "/>
<polyline fill="none" stroke="black" points="564.658,-201.857 703.658,-201.857 "/>
<text text-anchor="start" x="572.658" y="-186.657" font-family="Times,serif" font-size="14.00">_layout</text>
<text text-anchor="start" x="572.658" y="-171.657" font-family="Times,serif" font-size="14.00">ingredient_params</text>
<text text-anchor="start" x="572.658" y="-156.657" font-family="Times,serif" font-size="14.00">set_ingredient</text>
</g>
<!-- ApplicationController&#45;&gt;IngredientsController -->
<g id="edge7" class="edge"><title>ApplicationController&#45;&gt;IngredientsController</title>
<path fill="none" stroke="black" d="M448.246,-357.931C484.584,-337.883 528.51,-313.647 564.539,-293.769"/>
</g>
</g>
</svg>
