<?xml version="1.0" encoding="UTF-8" standalone="no"?>
<!DOCTYPE svg PUBLIC "-//W3C//DTD SVG 1.1//EN"
 "http://www.w3.org/Graphics/SVG/1.1/DTD/svg11.dtd">
<!-- Generated by graphviz version 2.36.0 (20140111.2315)
 -->
<!-- Title: models_diagram Pages: 1 -->
<svg width="1186pt" height="758pt"
 viewBox="0.00 0.00 1186.00 758.00" xmlns="http://www.w3.org/2000/svg" xmlns:xlink="http://www.w3.org/1999/xlink">
<g id="graph0" class="graph" transform="scale(1 1) rotate(0) translate(4 754)">
<title>models_diagram</title>
<polygon fill="white" stroke="none" points="-4,4 -4,-754 1182,-754 1182,4 -4,4"/>
<!-- _diagram_info -->
<g id="node1" class="node"><title>_diagram_info</title>
<text text-anchor="start" x="252" y="-735.6" font-family="Times,serif" font-size="13.00">Models diagram</text>
<text text-anchor="start" x="252" y="-721.6" font-family="Times,serif" font-size="13.00">Date: Mar 09 2014 &#45; 00:08</text>
<text text-anchor="start" x="252" y="-707.6" font-family="Times,serif" font-size="13.00">Migration version: 20140225123521</text>
<text text-anchor="start" x="252" y="-693.6" font-family="Times,serif" font-size="13.00">Generated by RailRoady 1.1.1</text>
<text text-anchor="start" x="252" y="-679.6" font-family="Times,serif" font-size="13.00">http://railroady.prestonlee.com</text>
</g>
<!-- User -->
<g id="node2" class="node"><title>User</title>
<path fill="none" stroke="black" d="M12,-409C12,-409 194,-409 194,-409 200,-409 206,-415 206,-421 206,-421 206,-623 206,-623 206,-629 200,-635 194,-635 194,-635 12,-635 12,-635 6,-635 0,-629 0,-623 0,-623 0,-421 0,-421 0,-415 6,-409 12,-409"/>
<text text-anchor="middle" x="103" y="-619.8" font-family="Times,serif" font-size="14.00">User</text>
<polyline fill="none" stroke="black" points="0,-612 206,-612 "/>
<text text-anchor="start" x="8" y="-596.8" font-family="Times,serif" font-size="14.00">id :integer</text>
<text text-anchor="start" x="8" y="-581.8" font-family="Times,serif" font-size="14.00">email :string</text>
<text text-anchor="start" x="8" y="-566.8" font-family="Times,serif" font-size="14.00">encrypted_password :string</text>
<text text-anchor="start" x="8" y="-551.8" font-family="Times,serif" font-size="14.00">reset_password_token :string</text>
<text text-anchor="start" x="8" y="-536.8" font-family="Times,serif" font-size="14.00">reset_password_sent_at :datetime</text>
<text text-anchor="start" x="8" y="-521.8" font-family="Times,serif" font-size="14.00">remember_created_at :datetime</text>
<text text-anchor="start" x="8" y="-506.8" font-family="Times,serif" font-size="14.00">sign_in_count :integer</text>
<text text-anchor="start" x="8" y="-491.8" font-family="Times,serif" font-size="14.00">current_sign_in_at :datetime</text>
<text text-anchor="start" x="8" y="-476.8" font-family="Times,serif" font-size="14.00">last_sign_in_at :datetime</text>
<text text-anchor="start" x="8" y="-461.8" font-family="Times,serif" font-size="14.00">current_sign_in_ip :string</text>
<text text-anchor="start" x="8" y="-446.8" font-family="Times,serif" font-size="14.00">last_sign_in_ip :string</text>
<text text-anchor="start" x="8" y="-431.8" font-family="Times,serif" font-size="14.00">created_at :datetime</text>
<text text-anchor="start" x="8" y="-416.8" font-family="Times,serif" font-size="14.00">updated_at :datetime</text>
</g>
<!-- IngredientItem -->
<g id="node3" class="node"><title>IngredientItem</title>
<path fill="none" stroke="black" d="M566,-1C566,-1 706,-1 706,-1 712,-1 718,-7 718,-13 718,-13 718,-125 718,-125 718,-131 712,-137 706,-137 706,-137 566,-137 566,-137 560,-137 554,-131 554,-125 554,-125 554,-13 554,-13 554,-7 560,-1 566,-1"/>
<text text-anchor="middle" x="636" y="-121.8" font-family="Times,serif" font-size="14.00">IngredientItem</text>
<polyline fill="none" stroke="black" points="554,-114 718,-114 "/>
<text text-anchor="start" x="562" y="-98.8" font-family="Times,serif" font-size="14.00">id :integer</text>
<text text-anchor="start" x="562" y="-83.8" font-family="Times,serif" font-size="14.00">qty :decimal</text>
<text text-anchor="start" x="562" y="-68.8" font-family="Times,serif" font-size="14.00">ingredient_id :integer</text>
<text text-anchor="start" x="562" y="-53.8" font-family="Times,serif" font-size="14.00">measure_id :integer</text>
<text text-anchor="start" x="562" y="-38.8" font-family="Times,serif" font-size="14.00">created_at :datetime</text>
<text text-anchor="start" x="562" y="-23.8" font-family="Times,serif" font-size="14.00">updated_at :datetime</text>
<text text-anchor="start" x="562" y="-8.8" font-family="Times,serif" font-size="14.00">ingredient_list_id :integer</text>
</g>
<!-- Ingredient -->
<g id="node4" class="node"><title>Ingredient</title>
<path fill="none" stroke="black" d="M580.5,-469C580.5,-469 691.5,-469 691.5,-469 697.5,-469 703.5,-475 703.5,-481 703.5,-481 703.5,-563 703.5,-563 703.5,-569 697.5,-575 691.5,-575 691.5,-575 580.5,-575 580.5,-575 574.5,-575 568.5,-569 568.5,-563 568.5,-563 568.5,-481 568.5,-481 568.5,-475 574.5,-469 580.5,-469"/>
<text text-anchor="middle" x="636" y="-559.8" font-family="Times,serif" font-size="14.00">Ingredient</text>
<polyline fill="none" stroke="black" points="568.5,-552 703.5,-552 "/>
<text text-anchor="start" x="576.5" y="-536.8" font-family="Times,serif" font-size="14.00">id :integer</text>
<text text-anchor="start" x="576.5" y="-521.8" font-family="Times,serif" font-size="14.00">name :string</text>
<text text-anchor="start" x="576.5" y="-506.8" font-family="Times,serif" font-size="14.00">description :string</text>
<text text-anchor="start" x="576.5" y="-491.8" font-family="Times,serif" font-size="14.00">created_at :datetime</text>
<text text-anchor="start" x="576.5" y="-476.8" font-family="Times,serif" font-size="14.00">updated_at :datetime</text>
</g>
<!-- Ingredient&#45;&gt;IngredientItem -->
<g id="edge3" class="edge"><title>Ingredient&#45;&gt;IngredientItem</title>
<path fill="none" stroke="#0e06a2" d="M636,-460.653C636,-379.672 636,-235.779 636,-147.055"/>
<ellipse fill="none" stroke="#0e06a2" cx="636" cy="-464.824" rx="4" ry="4"/>
<polygon fill="#0e06a2" stroke="#0e06a2" points="636,-147.049 640.5,-137.049 636,-142.049 636,-137.049 636,-137.049 636,-137.049 636,-142.049 631.5,-137.049 636,-147.049 636,-147.049"/>
</g>
<!-- IngredientList -->
<g id="node11" class="node"><title>IngredientList</title>
<path fill="none" stroke="black" d="M379.5,-220C379.5,-220 490.5,-220 490.5,-220 496.5,-220 502.5,-226 502.5,-232 502.5,-232 502.5,-314 502.5,-314 502.5,-320 496.5,-326 490.5,-326 490.5,-326 379.5,-326 379.5,-326 373.5,-326 367.5,-320 367.5,-314 367.5,-314 367.5,-232 367.5,-232 367.5,-226 373.5,-220 379.5,-220"/>
<text text-anchor="middle" x="435" y="-310.8" font-family="Times,serif" font-size="14.00">IngredientList</text>
<polyline fill="none" stroke="black" points="367.5,-303 502.5,-303 "/>
<text text-anchor="start" x="375.5" y="-287.8" font-family="Times,serif" font-size="14.00">id :integer</text>
<text text-anchor="start" x="375.5" y="-272.8" font-family="Times,serif" font-size="14.00">name :string</text>
<text text-anchor="start" x="375.5" y="-257.8" font-family="Times,serif" font-size="14.00">recipe_id :integer</text>
<text text-anchor="start" x="375.5" y="-242.8" font-family="Times,serif" font-size="14.00">created_at :datetime</text>
<text text-anchor="start" x="375.5" y="-227.8" font-family="Times,serif" font-size="14.00">updated_at :datetime</text>
</g>
<!-- Ingredient&#45;&gt;IngredientList -->
<g id="edge4" class="edge"><title>Ingredient&#45;&gt;IngredientList</title>
<path fill="none" stroke="#4edac3" d="M597.228,-460.547C585.46,-443.2 572.152,-424.519 559,-408 538.868,-382.714 515.1,-356.311 493.786,-333.693"/>
<polygon fill="#4edac3" stroke="#4edac3" points="597.292,-460.643 599.14,-471.452 600.083,-464.791 602.874,-468.94 602.874,-468.94 602.874,-468.94 600.083,-464.791 606.608,-466.429 597.292,-460.643 597.292,-460.643"/>
<polygon fill="#4edac3" stroke="#4edac3" points="493.54,-333.433 489.927,-323.079 490.1,-329.804 486.661,-326.174 486.661,-326.174 486.661,-326.174 490.1,-329.804 483.395,-329.27 493.54,-333.433 493.54,-333.433"/>
</g>
<!-- RecipePart -->
<g id="node5" class="node"><title>RecipePart</title>
<path fill="none" stroke="black" d="M427.5,-461.5C427.5,-461.5 538.5,-461.5 538.5,-461.5 544.5,-461.5 550.5,-467.5 550.5,-473.5 550.5,-473.5 550.5,-570.5 550.5,-570.5 550.5,-576.5 544.5,-582.5 538.5,-582.5 538.5,-582.5 427.5,-582.5 427.5,-582.5 421.5,-582.5 415.5,-576.5 415.5,-570.5 415.5,-570.5 415.5,-473.5 415.5,-473.5 415.5,-467.5 421.5,-461.5 427.5,-461.5"/>
<text text-anchor="middle" x="483" y="-567.3" font-family="Times,serif" font-size="14.00">RecipePart</text>
<polyline fill="none" stroke="black" points="415.5,-559.5 550.5,-559.5 "/>
<text text-anchor="start" x="423.5" y="-544.3" font-family="Times,serif" font-size="14.00">id :integer</text>
<text text-anchor="start" x="423.5" y="-529.3" font-family="Times,serif" font-size="14.00">image :string</text>
<text text-anchor="start" x="423.5" y="-514.3" font-family="Times,serif" font-size="14.00">description :text</text>
<text text-anchor="start" x="423.5" y="-499.3" font-family="Times,serif" font-size="14.00">recipe_id :integer</text>
<text text-anchor="start" x="423.5" y="-484.3" font-family="Times,serif" font-size="14.00">created_at :datetime</text>
<text text-anchor="start" x="423.5" y="-469.3" font-family="Times,serif" font-size="14.00">updated_at :datetime</text>
</g>
<!-- Recipe -->
<g id="node6" class="node"><title>Recipe</title>
<path fill="none" stroke="black" d="M274.5,-431.5C274.5,-431.5 385.5,-431.5 385.5,-431.5 391.5,-431.5 397.5,-437.5 397.5,-443.5 397.5,-443.5 397.5,-600.5 397.5,-600.5 397.5,-606.5 391.5,-612.5 385.5,-612.5 385.5,-612.5 274.5,-612.5 274.5,-612.5 268.5,-612.5 262.5,-606.5 262.5,-600.5 262.5,-600.5 262.5,-443.5 262.5,-443.5 262.5,-437.5 268.5,-431.5 274.5,-431.5"/>
<text text-anchor="middle" x="330" y="-597.3" font-family="Times,serif" font-size="14.00">Recipe</text>
<polyline fill="none" stroke="black" points="262.5,-589.5 397.5,-589.5 "/>
<text text-anchor="start" x="270.5" y="-574.3" font-family="Times,serif" font-size="14.00">id :integer</text>
<text text-anchor="start" x="270.5" y="-559.3" font-family="Times,serif" font-size="14.00">name :string</text>
<text text-anchor="start" x="270.5" y="-544.3" font-family="Times,serif" font-size="14.00">description :text</text>
<text text-anchor="start" x="270.5" y="-529.3" font-family="Times,serif" font-size="14.00">image :string</text>
<text text-anchor="start" x="270.5" y="-514.3" font-family="Times,serif" font-size="14.00">complexity :decimal</text>
<text text-anchor="start" x="270.5" y="-499.3" font-family="Times,serif" font-size="14.00">cooking_time :time</text>
<text text-anchor="start" x="270.5" y="-484.3" font-family="Times,serif" font-size="14.00">is_draft :boolean</text>
<text text-anchor="start" x="270.5" y="-469.3" font-family="Times,serif" font-size="14.00">is_checked :boolean</text>
<text text-anchor="start" x="270.5" y="-454.3" font-family="Times,serif" font-size="14.00">created_at :datetime</text>
<text text-anchor="start" x="270.5" y="-439.3" font-family="Times,serif" font-size="14.00">updated_at :datetime</text>
</g>
<!-- Recipe&#45;&gt;IngredientList -->
<g id="edge7" class="edge"><title>Recipe&#45;&gt;IngredientList</title>
<path fill="none" stroke="#78b501" d="M371.249,-423.968C383.921,-394.157 397.512,-362.187 408.875,-335.456"/>
<ellipse fill="none" stroke="#78b501" cx="369.621" cy="-427.797" rx="4.00002" ry="4.00002"/>
<polygon fill="#78b501" stroke="#78b501" points="408.884,-335.434 416.938,-327.992 410.84,-330.833 412.796,-326.231 412.796,-326.231 412.796,-326.231 410.84,-330.833 408.655,-324.471 408.884,-335.434 408.884,-335.434"/>
</g>
<!-- Ckeditor::AttachmentFile -->
<g id="node7" class="node"><title>Ckeditor::AttachmentFile</title>
<path fill="none" stroke="black" d="M1028,-175C1028,-175 1166,-175 1166,-175 1172,-175 1178,-181 1178,-187 1178,-187 1178,-359 1178,-359 1178,-365 1172,-371 1166,-371 1166,-371 1028,-371 1028,-371 1022,-371 1016,-365 1016,-359 1016,-359 1016,-187 1016,-187 1016,-181 1022,-175 1028,-175"/>
<text text-anchor="middle" x="1097" y="-355.8" font-family="Times,serif" font-size="14.00">Ckeditor::AttachmentFile</text>
<polyline fill="none" stroke="black" points="1016,-348 1178,-348 "/>
<text text-anchor="start" x="1024" y="-332.8" font-family="Times,serif" font-size="14.00">id :integer</text>
<text text-anchor="start" x="1024" y="-317.8" font-family="Times,serif" font-size="14.00">data_file_name :string</text>
<text text-anchor="start" x="1024" y="-302.8" font-family="Times,serif" font-size="14.00">data_content_type :string</text>
<text text-anchor="start" x="1024" y="-287.8" font-family="Times,serif" font-size="14.00">data_file_size :integer</text>
<text text-anchor="start" x="1024" y="-272.8" font-family="Times,serif" font-size="14.00">assetable_id :integer</text>
<text text-anchor="start" x="1024" y="-257.8" font-family="Times,serif" font-size="14.00">assetable_type :string</text>
<text text-anchor="start" x="1024" y="-242.8" font-family="Times,serif" font-size="14.00">type :string</text>
<text text-anchor="start" x="1024" y="-227.8" font-family="Times,serif" font-size="14.00">width :integer</text>
<text text-anchor="start" x="1024" y="-212.8" font-family="Times,serif" font-size="14.00">height :integer</text>
<text text-anchor="start" x="1024" y="-197.8" font-family="Times,serif" font-size="14.00">created_at :datetime</text>
<text text-anchor="start" x="1024" y="-182.8" font-family="Times,serif" font-size="14.00">updated_at :datetime</text>
</g>
<!-- Ckeditor::Picture -->
<g id="node8" class="node"><title>Ckeditor::Picture</title>
<path fill="none" stroke="black" d="M848.5,-175C848.5,-175 985.5,-175 985.5,-175 991.5,-175 997.5,-181 997.5,-187 997.5,-187 997.5,-359 997.5,-359 997.5,-365 991.5,-371 985.5,-371 985.5,-371 848.5,-371 848.5,-371 842.5,-371 836.5,-365 836.5,-359 836.5,-359 836.5,-187 836.5,-187 836.5,-181 842.5,-175 848.5,-175"/>
<text text-anchor="middle" x="917" y="-355.8" font-family="Times,serif" font-size="14.00">Ckeditor::Picture</text>
<polyline fill="none" stroke="black" points="836.5,-348 997.5,-348 "/>
<text text-anchor="start" x="844.5" y="-332.8" font-family="Times,serif" font-size="14.00">id :integer</text>
<text text-anchor="start" x="844.5" y="-317.8" font-family="Times,serif" font-size="14.00">data_file_name :string</text>
<text text-anchor="start" x="844.5" y="-302.8" font-family="Times,serif" font-size="14.00">data_content_type :string</text>
<text text-anchor="start" x="844.5" y="-287.8" font-family="Times,serif" font-size="14.00">data_file_size :integer</text>
<text text-anchor="start" x="844.5" y="-272.8" font-family="Times,serif" font-size="14.00">assetable_id :integer</text>
<text text-anchor="start" x="844.5" y="-257.8" font-family="Times,serif" font-size="14.00">assetable_type :string</text>
<text text-anchor="start" x="844.5" y="-242.8" font-family="Times,serif" font-size="14.00">type :string</text>
<text text-anchor="start" x="844.5" y="-227.8" font-family="Times,serif" font-size="14.00">width :integer</text>
<text text-anchor="start" x="844.5" y="-212.8" font-family="Times,serif" font-size="14.00">height :integer</text>
<text text-anchor="start" x="844.5" y="-197.8" font-family="Times,serif" font-size="14.00">created_at :datetime</text>
<text text-anchor="start" x="844.5" y="-182.8" font-family="Times,serif" font-size="14.00">updated_at :datetime</text>
</g>
<!-- Ckeditor::Asset -->
<g id="node9" class="node"><title>Ckeditor::Asset</title>
<path fill="none" stroke="black" d="M925.5,-424C925.5,-424 1062.5,-424 1062.5,-424 1068.5,-424 1074.5,-430 1074.5,-436 1074.5,-436 1074.5,-608 1074.5,-608 1074.5,-614 1068.5,-620 1062.5,-620 1062.5,-620 925.5,-620 925.5,-620 919.5,-620 913.5,-614 913.5,-608 913.5,-608 913.5,-436 913.5,-436 913.5,-430 919.5,-424 925.5,-424"/>
<text text-anchor="middle" x="994" y="-604.8" font-family="Times,serif" font-size="14.00">Ckeditor::Asset</text>
<polyline fill="none" stroke="black" points="913.5,-597 1074.5,-597 "/>
<text text-anchor="start" x="921.5" y="-581.8" font-family="Times,serif" font-size="14.00">id :integer</text>
<text text-anchor="start" x="921.5" y="-566.8" font-family="Times,serif" font-size="14.00">data_file_name :string</text>
<text text-anchor="start" x="921.5" y="-551.8" font-family="Times,serif" font-size="14.00">data_content_type :string</text>
<text text-anchor="start" x="921.5" y="-536.8" font-family="Times,serif" font-size="14.00">data_file_size :integer</text>
<text text-anchor="start" x="921.5" y="-521.8" font-family="Times,serif" font-size="14.00">assetable_id :integer</text>
<text text-anchor="start" x="921.5" y="-506.8" font-family="Times,serif" font-size="14.00">assetable_type :string</text>
<text text-anchor="start" x="921.5" y="-491.8" font-family="Times,serif" font-size="14.00">type :string</text>
<text text-anchor="start" x="921.5" y="-476.8" font-family="Times,serif" font-size="14.00">width :integer</text>
<text text-anchor="start" x="921.5" y="-461.8" font-family="Times,serif" font-size="14.00">height :integer</text>
<text text-anchor="start" x="921.5" y="-446.8" font-family="Times,serif" font-size="14.00">created_at :datetime</text>
<text text-anchor="start" x="921.5" y="-431.8" font-family="Times,serif" font-size="14.00">updated_at :datetime</text>
</g>
<!-- Ckeditor::Asset&#45;&gt;Ckeditor::AttachmentFile -->
<g id="edge9" class="edge"><title>Ckeditor::Asset&#45;&gt;Ckeditor::AttachmentFile</title>
<path fill="none" stroke="black" d="M1034.56,-423.734C1041.77,-406.454 1049.27,-388.455 1056.48,-371.178"/>
</g>
<!-- Ckeditor::Asset&#45;&gt;Ckeditor::Picture -->
<g id="edge10" class="edge"><title>Ckeditor::Asset&#45;&gt;Ckeditor::Picture</title>
<path fill="none" stroke="black" d="M963.678,-423.734C958.291,-406.454 952.68,-388.455 947.294,-371.178"/>
</g>
<!-- Measure -->
<g id="node10" class="node"><title>Measure</title>
<path fill="none" stroke="black" d="M772.5,-469C772.5,-469 883.5,-469 883.5,-469 889.5,-469 895.5,-475 895.5,-481 895.5,-481 895.5,-563 895.5,-563 895.5,-569 889.5,-575 883.5,-575 883.5,-575 772.5,-575 772.5,-575 766.5,-575 760.5,-569 760.5,-563 760.5,-563 760.5,-481 760.5,-481 760.5,-475 766.5,-469 772.5,-469"/>
<text text-anchor="middle" x="828" y="-559.8" font-family="Times,serif" font-size="14.00">Measure</text>
<polyline fill="none" stroke="black" points="760.5,-552 895.5,-552 "/>
<text text-anchor="start" x="768.5" y="-536.8" font-family="Times,serif" font-size="14.00">id :integer</text>
<text text-anchor="start" x="768.5" y="-521.8" font-family="Times,serif" font-size="14.00">name :string</text>
<text text-anchor="start" x="768.5" y="-506.8" font-family="Times,serif" font-size="14.00">val :string</text>
<text text-anchor="start" x="768.5" y="-491.8" font-family="Times,serif" font-size="14.00">created_at :datetime</text>
<text text-anchor="start" x="768.5" y="-476.8" font-family="Times,serif" font-size="14.00">updated_at :datetime</text>
</g>
<!-- IngredientList&#45;&gt;IngredientItem -->
<g id="edge13" class="edge"><title>IngredientList&#45;&gt;IngredientItem</title>
<path fill="none" stroke="#ecde67" d="M492.442,-214.273C514.147,-192.459 539.157,-167.325 562.159,-144.208"/>
<ellipse fill="none" stroke="#ecde67" cx="489.584" cy="-217.145" rx="4.00002" ry="4.00002"/>
<polygon fill="#ecde67" stroke="#ecde67" points="562.173,-144.194 572.417,-140.279 565.7,-140.65 569.227,-137.105 569.227,-137.105 569.227,-137.105 565.7,-140.65 566.037,-133.931 562.173,-144.194 562.173,-144.194"/>
</g>
<!-- ActiveRecord::Base -->
<g id="node12" class="node"><title>ActiveRecord::Base</title>
<ellipse fill="none" stroke="black" cx="560" cy="-711" rx="84.2388" ry="18"/>
<text text-anchor="middle" x="560" y="-707.3" font-family="Times,serif" font-size="14.00">ActiveRecord::Base</text>
</g>
<!-- ActiveRecord::Base&#45;&gt;User -->
<g id="edge1" class="edge"><title>ActiveRecord::Base&#45;&gt;User</title>
<path fill="none" stroke="black" d="M526.734,-694.284C509.047,-686.513 486.727,-677.619 466,-672 359.352,-643.087 319.175,-684.724 220,-636 215.311,-633.696 210.689,-631.135 206.148,-628.367"/>
</g>
<!-- ActiveRecord::Base&#45;&gt;IngredientItem -->
<g id="edge2" class="edge"><title>ActiveRecord::Base&#45;&gt;IngredientItem</title>
<path fill="none" stroke="black" d="M617.98,-697.854C651.688,-687.496 691.458,-668.848 712,-636 763.255,-554.04 692.33,-268.539 655.619,-137.133"/>
</g>
<!-- ActiveRecord::Base&#45;&gt;Ingredient -->
<g id="edge5" class="edge"><title>ActiveRecord::Base&#45;&gt;Ingredient</title>
<path fill="none" stroke="black" d="M567.014,-692.743C577.781,-666.251 598.817,-614.491 614.842,-575.059"/>
</g>
<!-- ActiveRecord::Base&#45;&gt;RecipePart -->
<g id="edge6" class="edge"><title>ActiveRecord::Base&#45;&gt;RecipePart</title>
<path fill="none" stroke="black" d="M552.894,-692.743C542.693,-667.968 523.393,-621.097 507.654,-582.875"/>
</g>
<!-- ActiveRecord::Base&#45;&gt;Recipe -->
<g id="edge8" class="edge"><title>ActiveRecord::Base&#45;&gt;Recipe</title>
<path fill="none" stroke="black" d="M522.829,-694.816C483.486,-678.284 424.561,-652.062 406,-636 397.955,-629.038 390.39,-621.032 383.385,-612.565"/>
</g>
<!-- ActiveRecord::Base&#45;&gt;Ckeditor::Asset -->
<g id="edge11" class="edge"><title>ActiveRecord::Base&#45;&gt;Ckeditor::Asset</title>
<path fill="none" stroke="black" d="M642.954,-707.676C716.504,-702.177 824.307,-685.416 904,-636 911.354,-631.44 918.36,-626.057 924.979,-620.155"/>
</g>
<!-- ActiveRecord::Base&#45;&gt;Measure -->
<g id="edge12" class="edge"><title>ActiveRecord::Base&#45;&gt;Measure</title>
<path fill="none" stroke="black" d="M614.209,-697.185C653.7,-685.883 706.903,-666.397 746,-636 767.145,-619.56 785.314,-596.259 799.136,-575.083"/>
</g>
<!-- ActiveRecord::Base&#45;&gt;IngredientList -->
<g id="edge14" class="edge"><title>ActiveRecord::Base&#45;&gt;IngredientList</title>
<path fill="none" stroke="black" d="M526.246,-694.282C508.615,-686.607 486.494,-677.8 466,-672 419.81,-658.928 283.987,-672.664 253,-636 220.294,-597.303 230.141,-453.217 253,-408 276.899,-360.727 326.204,-326.048 367.475,-303.826"/>
</g>
</g>
</svg>
