<?xml version="1.0" encoding="UTF-8" standalone="no"?>
<!DOCTYPE svg PUBLIC "-//W3C//DTD SVG 1.1//EN"
 "http://www.w3.org/Graphics/SVG/1.1/DTD/svg11.dtd">
<!-- Generated by graphviz version 2.36.0 (20140111.2315)
 -->
<!-- Title: models_diagram Pages: 1 -->
<svg width="911pt" height="302pt"
 viewBox="0.00 0.00 911.00 302.00" xmlns="http://www.w3.org/2000/svg" xmlns:xlink="http://www.w3.org/1999/xlink">
<g id="graph0" class="graph" transform="scale(1 1) rotate(0) translate(4 298)">
<title>models_diagram</title>
<polygon fill="white" stroke="none" points="-4,4 -4,-298 907,-298 907,4 -4,4"/>
<!-- _diagram_info -->
<g id="node1" class="node"><title>_diagram_info</title>
<text text-anchor="start" x="8" y="-279.6" font-family="Times,serif" font-size="13.00">Models diagram</text>
<text text-anchor="start" x="8" y="-265.6" font-family="Times,serif" font-size="13.00">Date: Mar 09 2014 &#45; 00:08</text>
<text text-anchor="start" x="8" y="-251.6" font-family="Times,serif" font-size="13.00">Migration version: 20140225123521</text>
<text text-anchor="start" x="8" y="-237.6" font-family="Times,serif" font-size="13.00">Generated by RailRoady 1.1.1</text>
<text text-anchor="start" x="8" y="-223.6" font-family="Times,serif" font-size="13.00">http://railroady.prestonlee.com</text>
</g>
<!-- User -->
<g id="node2" class="node"><title>User</title>
<ellipse fill="none" stroke="black" cx="32" cy="-162" rx="27.4223" ry="18"/>
<text text-anchor="middle" x="32" y="-158.3" font-family="Times,serif" font-size="14.00">User</text>
</g>
<!-- IngredientItem -->
<g id="node3" class="node"><title>IngredientItem</title>
<ellipse fill="none" stroke="black" cx="374" cy="-18" rx="65.4659" ry="18"/>
<text text-anchor="middle" x="374" y="-14.3" font-family="Times,serif" font-size="14.00">IngredientItem</text>
</g>
<!-- Ingredient -->
<g id="node4" class="node"><title>Ingredient</title>
<ellipse fill="none" stroke="black" cx="374" cy="-162" rx="48.6179" ry="18"/>
<text text-anchor="middle" x="374" y="-158.3" font-family="Times,serif" font-size="14.00">Ingredient</text>
</g>
<!-- Ingredient&#45;&gt;IngredientItem -->
<g id="edge3" class="edge"><title>Ingredient&#45;&gt;IngredientItem</title>
<path fill="none" stroke="#a49349" d="M374,-135.558C374,-110.444 374,-72.164 374,-46.3932"/>
<ellipse fill="none" stroke="#a49349" cx="374" cy="-139.871" rx="4" ry="4"/>
<polygon fill="#a49349" stroke="#a49349" points="374,-46.1893 378.5,-36.1892 374,-41.1893 374,-36.1893 374,-36.1893 374,-36.1893 374,-41.1893 369.5,-36.1893 374,-46.1893 374,-46.1893"/>
</g>
<!-- IngredientList -->
<g id="node11" class="node"><title>IngredientList</title>
<ellipse fill="none" stroke="black" cx="218" cy="-90" rx="63.0666" ry="18"/>
<text text-anchor="middle" x="218" y="-86.3" font-family="Times,serif" font-size="14.00">IngredientList</text>
</g>
<!-- Ingredient&#45;&gt;IngredientList -->
<g id="edge4" class="edge"><title>Ingredient&#45;&gt;IngredientList</title>
<path fill="none" stroke="#2b2425" d="M335.052,-143.523C312.085,-133.218 283.031,-120.18 259.615,-109.673"/>
<polygon fill="#2b2425" stroke="#2b2425" points="335.167,-143.575 342.448,-151.774 339.729,-145.622 344.29,-147.669 344.29,-147.669 344.29,-147.669 339.729,-145.622 346.133,-143.563 335.167,-143.575 335.167,-143.575"/>
<polygon fill="#2b2425" stroke="#2b2425" points="259.411,-109.582 252.13,-101.383 254.85,-107.535 250.288,-105.488 250.288,-105.488 250.288,-105.488 254.85,-107.535 248.446,-109.594 259.411,-109.582 259.411,-109.582"/>
</g>
<!-- RecipePart -->
<g id="node5" class="node"><title>RecipePart</title>
<ellipse fill="none" stroke="black" cx="257" cy="-162" rx="50.5427" ry="18"/>
<text text-anchor="middle" x="257" y="-158.3" font-family="Times,serif" font-size="14.00">RecipePart</text>
</g>
<!-- Recipe -->
<g id="node6" class="node"><title>Recipe</title>
<ellipse fill="none" stroke="black" cx="152" cy="-162" rx="36.096" ry="18"/>
<text text-anchor="middle" x="152" y="-158.3" font-family="Times,serif" font-size="14.00">Recipe</text>
</g>
<!-- Recipe&#45;&gt;IngredientList -->
<g id="edge7" class="edge"><title>Recipe&#45;&gt;IngredientList</title>
<path fill="none" stroke="#637beb" d="M172.15,-139.629C179.461,-131.874 187.77,-123.063 195.287,-115.09"/>
<ellipse fill="none" stroke="#637beb" cx="169.392" cy="-142.554" rx="4.00002" ry="4.00002"/>
<polygon fill="#637beb" stroke="#637beb" points="195.614,-114.743 205.748,-110.554 199.044,-111.105 202.474,-107.467 202.474,-107.467 202.474,-107.467 199.044,-111.105 199.2,-104.38 195.614,-114.743 195.614,-114.743"/>
</g>
<!-- Ckeditor::AttachmentFile -->
<g id="node7" class="node"><title>Ckeditor::AttachmentFile</title>
<ellipse fill="none" stroke="black" cx="798" cy="-90" rx="104.937" ry="18"/>
<text text-anchor="middle" x="798" y="-86.3" font-family="Times,serif" font-size="14.00">Ckeditor::AttachmentFile</text>
</g>
<!-- Ckeditor::Picture -->
<g id="node8" class="node"><title>Ckeditor::Picture</title>
<ellipse fill="none" stroke="black" cx="601" cy="-90" rx="74.1402" ry="18"/>
<text text-anchor="middle" x="601" y="-86.3" font-family="Times,serif" font-size="14.00">Ckeditor::Picture</text>
</g>
<!-- Ckeditor::Asset -->
<g id="node9" class="node"><title>Ckeditor::Asset</title>
<ellipse fill="none" stroke="black" cx="649" cy="-162" rx="68.3664" ry="18"/>
<text text-anchor="middle" x="649" y="-158.3" font-family="Times,serif" font-size="14.00">Ckeditor::Asset</text>
</g>
<!-- Ckeditor::Asset&#45;&gt;Ckeditor::AttachmentFile -->
<g id="edge9" class="edge"><title>Ckeditor::Asset&#45;&gt;Ckeditor::AttachmentFile</title>
<path fill="none" stroke="black" d="M680.964,-145.983C705.335,-134.534 738.837,-118.795 763.754,-107.089"/>
</g>
<!-- Ckeditor::Asset&#45;&gt;Ckeditor::Picture -->
<g id="edge10" class="edge"><title>Ckeditor::Asset&#45;&gt;Ckeditor::Picture</title>
<path fill="none" stroke="black" d="M637.381,-144.055C629.834,-133.049 620.038,-118.764 612.512,-107.789"/>
</g>
<!-- Measure -->
<g id="node10" class="node"><title>Measure</title>
<ellipse fill="none" stroke="black" cx="521" cy="-162" rx="42.3701" ry="18"/>
<text text-anchor="middle" x="521" y="-158.3" font-family="Times,serif" font-size="14.00">Measure</text>
</g>
<!-- IngredientList&#45;&gt;IngredientItem -->
<g id="edge13" class="edge"><title>IngredientList&#45;&gt;IngredientItem</title>
<path fill="none" stroke="#ba16f4" d="M257.741,-71.1677C280.447,-60.9789 308.903,-48.2102 331.979,-37.8556"/>
<ellipse fill="none" stroke="#ba16f4" cx="253.973" cy="-72.8584" rx="4.00002" ry="4.00002"/>
<polygon fill="#ba16f4" stroke="#ba16f4" points="332.058,-37.8203 343.024,-37.8319 336.62,-35.7733 341.181,-33.7263 341.181,-33.7263 341.181,-33.7263 336.62,-35.7733 339.339,-29.6207 332.058,-37.8203 332.058,-37.8203"/>
</g>
<!-- ActiveRecord::Base -->
<g id="node12" class="node"><title>ActiveRecord::Base</title>
<ellipse fill="none" stroke="black" cx="316" cy="-255" rx="84.2388" ry="18"/>
<text text-anchor="middle" x="316" y="-251.3" font-family="Times,serif" font-size="14.00">ActiveRecord::Base</text>
</g>
<!-- ActiveRecord::Base&#45;&gt;User -->
<g id="edge1" class="edge"><title>ActiveRecord::Base&#45;&gt;User</title>
<path fill="none" stroke="black" d="M281.183,-238.513C263.653,-231.08 241.94,-222.418 222,-216 157.56,-195.259 138.436,-200.755 74,-180 67.5607,-177.926 60.708,-175.327 54.4463,-172.79"/>
</g>
<!-- ActiveRecord::Base&#45;&gt;IngredientItem -->
<g id="edge2" class="edge"><title>ActiveRecord::Base&#45;&gt;IngredientItem</title>
<path fill="none" stroke="black" d="M357.634,-239.276C383.813,-227.597 415.477,-208.448 431,-180 457.986,-130.546 413.516,-65.8145 388.793,-35.7246"/>
</g>
<!-- ActiveRecord::Base&#45;&gt;Ingredient -->
<g id="edge5" class="edge"><title>ActiveRecord::Base&#45;&gt;Ingredient</title>
<path fill="none" stroke="black" d="M326.909,-236.884C337.344,-220.511 352.983,-195.975 363.336,-179.732"/>
</g>
<!-- ActiveRecord::Base&#45;&gt;RecipePart -->
<g id="edge6" class="edge"><title>ActiveRecord::Base&#45;&gt;RecipePart</title>
<path fill="none" stroke="black" d="M304.903,-236.884C294.288,-220.511 278.38,-195.975 267.848,-179.732"/>
</g>
<!-- ActiveRecord::Base&#45;&gt;Recipe -->
<g id="edge8" class="edge"><title>ActiveRecord::Base&#45;&gt;Recipe</title>
<path fill="none" stroke="black" d="M287.058,-237.941C255.241,-220.286 204.748,-192.269 175.352,-175.957"/>
</g>
<!-- ActiveRecord::Base&#45;&gt;Ckeditor::Asset -->
<g id="edge11" class="edge"><title>ActiveRecord::Base&#45;&gt;Ckeditor::Asset</title>
<path fill="none" stroke="black" d="M365.853,-240.376C430.173,-222.8 541.164,-192.469 603.363,-175.471"/>
</g>
<!-- ActiveRecord::Base&#45;&gt;Measure -->
<g id="edge12" class="edge"><title>ActiveRecord::Base&#45;&gt;Measure</title>
<path fill="none" stroke="black" d="M350.775,-238.563C390.757,-220.815 455.622,-192.021 492.667,-175.577"/>
</g>
<!-- ActiveRecord::Base&#45;&gt;IngredientList -->
<g id="edge14" class="edge"><title>ActiveRecord::Base&#45;&gt;IngredientList</title>
<path fill="none" stroke="black" d="M280.106,-238.696C262.691,-231.475 241.39,-222.941 222,-216 171.577,-197.949 138.713,-223.158 107,-180 97.5258,-167.107 98.4649,-157.533 107,-144 120.727,-122.234 146.124,-109.216 169.165,-101.533"/>
</g>
</g>
</svg>
